<?xml version="1.0" encoding="UTF-8" standalone="no"?>
<!-- Created with Inkscape (http://www.inkscape.org/) -->

<svg
   width="116.26077mm"
   height="52.166599mm"
   viewBox="0 0 116.26078 52.166599"
   version="1.1"
   id="svg5"
   inkscape:version="1.1.2 (b8e25be833, 2022-02-05)"
   sodipodi:docname="no-dengue-logo.svg"
   xmlns:inkscape="http://www.inkscape.org/namespaces/inkscape"
   xmlns:sodipodi="http://sodipodi.sourceforge.net/DTD/sodipodi-0.dtd"
   xmlns="http://www.w3.org/2000/svg"
   xmlns:svg="http://www.w3.org/2000/svg">
  <sodipodi:namedview
     id="namedview7"
     pagecolor="#ffffff"
     bordercolor="#666666"
     borderopacity="1.0"
     inkscape:pageshadow="2"
     inkscape:pageopacity="0.0"
     inkscape:pagecheckerboard="0"
     inkscape:document-units="mm"
     showgrid="false"
     inkscape:zoom="1.0469407"
     inkscape:cx="96.949144"
     inkscape:cy="43.937543"
     inkscape:window-width="1920"
     inkscape:window-height="1017"
     inkscape:window-x="1912"
     inkscape:window-y="-8"
     inkscape:window-maximized="1"
     inkscape:current-layer="layer1"
     fit-margin-top="0"
     fit-margin-left="0"
     fit-margin-right="0"
     fit-margin-bottom="0" />
  <defs
     id="defs2" />
  <g
     inkscape:label="Capa 1"
     inkscape:groupmode="layer"
     id="layer1"
     transform="translate(-19.878716,-112.7684)">
    <rect
       style="fill:none;stroke-width:0.435426"
       id="rect51217"
       width="116.26077"
       height="52.166599"
       x="19.878716"
       y="112.7684" />
    <path
       id="path32642"
       style="fill:#ffffff;stroke-width:0.0468851"
       d="m 90.478052,115.3716 c -0.04971,-0.005 -0.105538,0.005 -0.16764,0.0271 -0.172258,0.0623 -0.352665,0.5048 -0.41207,1.01333 -0.05247,0.44896 -0.02627,1.52149 0.04499,1.84591 0.02501,0.11434 0.03382,0.22257 0.01967,0.2407 -0.02674,0.0341 -0.296171,0.0271 -1.313019,-0.0328 -0.325677,-0.0164 -0.844826,-0.021 -1.152875,-0.006 l -0.560037,0.0252 -0.332473,-0.46264 c -0.609388,-0.84843 -1.217007,-1.31221 -1.55652,-1.18752 -0.121215,0.0446 -0.193527,0.16926 -0.554428,0.95338 l -0.415821,0.90282 -3.01564,0.23882 c -3.324683,0.26363 -3.399807,0.27223 -3.872566,0.4308 -0.537454,0.18026 -1.531727,0.63098 -1.559327,0.70709 -0.01365,0.0377 -0.08133,0.14004 -0.150785,0.22758 -0.275476,0.34749 -0.214382,0.78735 0.158275,1.13882 0.346802,0.32715 0.760941,0.42601 1.911466,0.45609 0.360645,0.009 1.113852,0.0403 1.673588,0.0693 0.559736,0.0289 1.323113,0.0584 1.696997,0.0655 0.708072,0.0134 2.193413,-0.0326 2.298252,-0.0712 0.03319,-0.0136 0.07764,-0.009 0.09928,0.007 0.04122,0.0323 -0.194102,1.438 -0.575034,3.42864 -0.218478,1.14176 -0.230082,1.17854 -0.428932,1.42822 -0.237389,0.29805 -0.420895,0.70365 -0.655575,1.44976 -0.122528,0.38952 -0.252699,0.6702 -0.482315,1.03674 -0.173135,0.27637 -0.358612,0.63397 -0.412073,0.79418 -0.103616,0.31065 -0.318098,0.58642 -1.440389,1.85714 -0.65663,0.74348 -1.267165,1.34597 -1.876813,1.84685 h 0.47763 c 0.683003,-0.59699 1.398084,-1.34296 2.228017,-2.32073 l 0.610616,-0.71926 0.09272,0.15734 c 0.245549,0.41735 0.588094,0.57972 0.990854,0.46827 0.560667,-0.15492 1.048957,-0.56351 2.094089,-1.75319 1.003334,-1.14211 1.999526,-2.21805 2.037896,-2.19992 0.01801,0.008 -0.09306,1.20472 -0.246309,2.65882 -0.153238,1.45416 -0.267602,2.7085 -0.254741,2.78806 0.01731,0.10734 -0.04232,0.41801 -0.172313,0.92061 h 0.493554 c 0.142461,-0.4923 0.22146,-0.69064 0.304367,-0.77077 0.122805,-0.11857 0.145191,-0.26596 0.414886,-2.8021 0.156549,-1.47216 0.287062,-2.89112 0.290326,-3.15331 0.0031,-0.26219 0.01967,-0.50773 0.0365,-0.54506 0.02824,-0.0628 1.693026,-1.74 1.746633,-1.75975 0.01322,-0.005 0.196997,0.2153 0.408333,0.48886 0.211336,0.27359 0.482863,0.58911 0.603127,0.70146 l 0.218211,0.20418 -0.07772,0.31654 c -0.04287,0.17418 -0.130662,0.59854 -0.194802,0.9431 -0.251634,1.35172 -0.726301,2.35022 -1.730721,3.63843 -0.264172,0.33879 -0.2839,0.44398 -0.09084,0.48512 0.06922,0.0147 0.1578,-0.0691 0.407389,-0.38585 0.481298,-0.61074 0.802876,-1.10457 1.081695,-1.66235 0.315073,-0.63031 0.456017,-1.08675 0.683675,-2.21209 0.09899,-0.48936 0.185284,-0.90144 0.191986,-0.91593 0.0063,-0.0143 0.07205,-7.9e-4 0.145159,0.0299 0.221704,0.0951 0.577657,0.0977 0.826963,0.007 0.165076,-0.0599 0.237278,-0.0669 0.252869,-0.0244 0.01203,0.0329 0.07669,0.41921 0.143287,0.85881 0.218085,1.43912 0.396715,2.03635 1.231543,4.11231 0.357164,0.88831 0.643786,1.65568 0.914991,2.44529 h 0.299695 c -0.25294,-0.70363 -0.508601,-1.41551 -0.747358,-2.06693 -0.844055,-2.30288 -1.169071,-3.23538 -1.211878,-3.47548 -0.14081,-0.78968 -0.325331,-2.03604 -0.313736,-2.12031 0.0071,-0.0507 0.03493,-0.10145 0.06183,-0.11051 0.02682,-0.01 0.194062,-0.17316 0.371795,-0.36338 l 0.323104,-0.34651 0.234132,0.10396 c 0.217213,0.0961 0.236657,0.1177 0.277215,0.29874 0.02454,0.10983 0.01762,0.25156 -0.01589,0.32404 -0.05373,0.11622 -0.04413,0.16385 0.09553,0.48982 0.128924,0.30104 0.178118,0.37374 0.294063,0.43174 0.174476,0.0874 0.348606,0.0706 0.451415,-0.043 0.141659,-0.15642 0.608523,-0.93259 0.787632,-1.31021 0.143437,-0.30336 0.191027,-0.36575 0.268774,-0.35307 0.05199,0.008 0.239757,0.012 0.416758,0.008 l 0.322168,-0.005 0.131119,0.39617 c 0.07245,0.21825 0.18364,0.46953 0.246309,0.55816 0.09361,0.13251 0.150382,0.33301 0.319352,1.12665 0.356551,1.67462 0.539703,2.32783 1.020828,3.6375 0.386536,1.05235 0.790669,1.95982 1.265249,2.81897 h 0.364315 c -0.102927,-0.17991 -0.202865,-0.35965 -0.295943,-0.53758 -0.603426,-1.15364 -1.152309,-2.51656 -1.481589,-3.6787 -0.168537,-0.59471 -0.580708,-2.31059 -0.621863,-2.58858 l -0.02061,-0.13955 0.151727,0.14142 c 0.231607,0.2159 0.555499,0.3923 0.826955,0.45048 0.134658,0.0288 0.250297,0.0685 0.257549,0.088 0.0071,0.0195 -0.009,0.30584 -0.03563,0.63685 -0.06136,0.76524 -0.04783,0.9517 0.07308,1.00771 0.167657,0.0775 0.204312,0.0109 0.205099,-0.37462 2.36e-4,-0.1367 0.02258,-0.48525 0.04963,-0.77451 l 0.04869,-0.5254 0.177937,-0.0225 c 0.09779,-0.0118 0.189052,-0.0263 0.202283,-0.0299 0.01321,-0.004 0.05003,0.0503 0.08242,0.12081 0.112295,0.24589 0.560218,0.77513 1.256832,1.48627 0.385814,0.39391 0.838914,0.89022 1.006764,1.10324 0.42251,0.53603 0.83647,1.01078 1.22218,1.39918 0.45694,0.46011 1.26604,1.17073 1.37296,1.20626 0.15191,0.0506 0.32526,-0.0444 0.37836,-0.20791 0.0266,-0.0823 0.039,-0.17155 0.0299,-0.19855 -0.0101,-0.027 -0.13573,-0.15219 -0.27908,-0.27815 -0.82395,-0.72292 -1.48932,-1.39982 -1.98639,-2.0201 -0.29671,-0.37026 -0.85405,-0.99562 -1.23903,-1.38981 -0.711161,-0.72815 -1.156331,-1.24581 -1.220305,-1.4198 -0.02596,-0.0706 0.0081,-0.14225 0.129238,-0.26784 l 0.163897,-0.17045 0.16764,0.10115 c 0.09225,0.0557 0.379945,0.1978 0.63871,0.31561 0.33679,0.15313 0.50205,0.20244 0.58159,0.17326 0.22641,-0.0832 0.13251,-0.19434 -0.34652,-0.40928 -0.25301,-0.11349 -0.560169,-0.26556 -0.681794,-0.33714 l -0.221019,-0.13018 0.0225,-0.2819 c 0.06843,-0.88669 -0.407547,-1.63105 -1.345797,-2.10439 -0.424191,-0.21416 -0.428934,-0.21705 -0.370867,-0.32778 0.03233,-0.0616 0.07512,-0.26341 0.09459,-0.44766 0.02966,-0.28119 0.01487,-0.39882 -0.09084,-0.73519 -0.327911,-1.04307 -1.382988,-2.43091 -2.356321,-3.09899 -0.158233,-0.10859 -0.448512,-0.2642 -0.644345,-0.34557 l -0.355874,-0.14798 0.11051,-0.45797 c 0.111886,-0.46438 0.245325,-0.96882 0.281894,-1.06577 0.02824,-0.0746 1.011594,0.88729 1.537791,1.50407 0.654618,0.76735 1.338906,1.69179 2.355384,3.18047 0.502324,0.7357 1.136404,1.61442 1.409478,1.95361 1.70334,2.11587 4.12135,4.18065 5.72971,4.89151 0.68458,0.30249 1.37056,0.4662 1.5996,0.38212 0.10058,-0.037 0.14717,-0.1702 0.0787,-0.22384 -0.0169,-0.0132 -0.25369,-0.0648 -0.52633,-0.11425 -1.34317,-0.24421 -3.29748,-1.57306 -5.24178,-3.56446 -1.06242,-1.08814 -1.66447,-1.84459 -2.800229,-3.51667 -1.448133,-2.13196 -2.50653,-3.45138 -3.564454,-4.44573 -0.267594,-0.25152 -0.501419,-0.49803 -0.519779,-0.54787 -0.04531,-0.12315 -0.30454,-0.23573 -0.433614,-0.18824 -0.05789,0.0214 -0.122725,0.0845 -0.144223,0.14047 -0.03831,0.0996 -0.290941,1.08835 -0.421438,1.65017 l -0.06552,0.28284 -0.507602,-0.0693 c -0.279165,-0.0383 -0.59681,-0.0992 -0.706148,-0.13487 -0.20572,-0.067 -1.116888,-0.18159 -1.20063,-0.15078 -0.06269,0.023 -0.08461,-0.0439 -0.142351,-0.43923 -0.02659,-0.18215 -0.136051,-0.72541 -0.2435,-1.2072 -0.107466,-0.48174 -0.213626,-0.9858 -0.236004,-1.12009 -0.0435,-0.26109 -0.137506,-0.39677 -0.286583,-0.4102 z m -0.103013,1.68108 c 0.0031,0.002 0.0055,0.008 0.0094,0.0169 0.05105,0.12745 0.206916,0.89297 0.248181,1.22031 0.02973,0.23763 0.01998,0.25703 -0.103949,0.23038 -0.06285,-0.0135 -0.08266,-0.0733 -0.123623,-0.37835 -0.05939,-0.4426 -0.07512,-1.12324 -0.02997,-1.08919 z m -5.233356,0.56849 c 0.09074,0.0185 0.401419,0.31957 0.630288,0.61155 0.111304,0.14212 0.201819,0.27801 0.201354,0.30157 -7.86e-4,0.0401 -1.256478,0.12768 -1.327067,0.0927 -0.05664,-0.0279 0.431458,-1.01852 0.495425,-1.00583 z m 2.489311,3.8145 c 0.102085,-3.2e-4 0.202432,0.004 0.313736,0.0103 l 0.275343,0.0169 -0.264102,0.35307 c -0.440521,0.59159 -0.781544,0.86494 -0.945897,0.75766 -0.04948,-0.0325 -0.188556,-0.0955 -0.309055,-0.14048 -0.422358,-0.15762 -0.611544,0.0323 -0.69866,0.70053 l -0.03933,0.295 -0.456095,0.32873 c -0.518442,0.37331 -1.263259,0.99018 -1.612707,1.33549 v 7.9e-4 c -0.129821,0.1283 -0.347206,0.34335 -0.483257,0.47763 -0.13605,0.13439 -0.249596,0.23758 -0.252861,0.22852 -0.0031,-0.009 0.04145,-0.27706 0.09928,-0.59657 0.385931,-2.13161 0.592886,-3.25881 0.600311,-3.27693 0.0047,-0.0109 0.380928,-0.0662 0.836331,-0.12268 0.455419,-0.0565 1.200535,-0.16004 1.655789,-0.22945 0.655845,-0.10045 0.974906,-0.13767 1.281177,-0.13862 z m 3.032492,1.87588 c 0.04067,-0.0149 0.325889,0.28444 0.359634,0.37742 0.02014,0.0555 0.04334,0.21092 0.05058,0.34557 0.0071,0.13466 0.04822,0.57851 0.09084,0.98617 0.04271,0.40764 0.05789,0.76733 0.03375,0.79887 -0.09672,0.12631 -0.479772,0.22214 -0.683667,0.17138 -0.109086,-0.0274 -0.217692,-0.0721 -0.241628,-0.0993 -0.02391,-0.0273 0.02643,-0.37899 0.112382,-0.78107 0.08597,-0.40206 0.1794,-0.96941 0.207914,-1.26151 0.02848,-0.29208 0.06041,-0.53395 0.07024,-0.53756 z m -0.371803,0.0477 c 0.0071,-5.8e-4 0.01156,5.1e-4 0.01314,0.005 0.0354,0.0963 -0.06104,0.87376 -0.182625,1.47129 -0.177938,0.87489 -0.154017,0.81655 -0.284703,0.69585 -0.08968,-0.0828 -0.520424,-0.6189 -0.836323,-1.03955 -0.05333,-0.0711 -0.03084,-0.11293 0.167641,-0.30811 0.301622,-0.29658 1.01474,-0.81539 1.122905,-0.82416 z m 1.164107,0.89627 c 0.01715,0 0.04193,0.0417 0.07402,0.12643 0.02454,0.0649 0.139,0.23443 0.254733,0.37741 l 0.210722,0.26037 -0.0693,0.0927 c -0.161198,0.21654 -0.374069,0.41893 -0.391468,0.3718 -0.01007,-0.0273 -0.04562,-0.31735 -0.07867,-0.64433 -0.03878,-0.38362 -0.03776,-0.5844 0,-0.5844 z m 2.285149,1.14631 c 0.009,0.002 -0.04641,0.10975 -0.12175,0.23788 -0.07543,0.12808 -0.153757,0.22047 -0.174193,0.20417 -0.02061,-0.016 -0.05215,-0.10597 -0.07017,-0.19949 -0.03288,-0.17006 -0.03304,-0.16987 0.158264,-0.20884 0.105334,-0.021 0.199223,-0.0373 0.207923,-0.0337 z" />
    <path
       id="rect32885"
       style="fill:#ffffff;stroke-width:0.369008"
       d="m 62.250929,133.80293 c -6.787421,0 -12.251732,5.46337 -12.251732,12.25079 0,6.78742 5.464311,12.25173 12.251732,12.25173 h 56.643431 c 6.78742,0 12.25173,-5.46431 12.25173,-12.25173 0,-6.78742 -5.46431,-12.25079 -12.25173,-12.25079 z m 17.030865,5.1865 c 0.249741,0 0.462022,0.0406 0.636845,0.12178 0.181067,0.0812 0.33715,0.19045 0.468265,0.3278 0.137354,0.13738 0.274718,0.31531 0.412073,0.53383 0.143606,0.21854 0.290327,0.44641 0.440172,0.68368 l 5.347608,8.09164 v -8.16656 c 0,-0.53072 0.112382,-0.92717 0.337153,-1.18942 0.231009,-0.26847 0.540065,-0.40272 0.927168,-0.40272 0.399585,0 0.714887,0.1343 0.945896,0.40272 0.231009,0.26225 0.346522,0.6587 0.346522,1.18942 v 10.79823 c 0,1.20499 -0.499492,1.8075 -1.498453,1.8075 -0.249746,0 -0.474517,-0.0375 -0.674306,-0.11237 -0.199797,-0.0687 -0.387103,-0.18104 -0.561925,-0.33715 -0.174815,-0.15603 -0.337146,-0.33715 -0.486993,-0.5432 -0.14984,-0.21227 -0.299688,-0.42767 -0.449535,-0.64621 l -5.216495,-7.99798 v 8.04481 c 0,0.52447 -0.12175,0.92093 -0.365249,1.1894 -0.243498,0.26847 -0.555674,0.40271 -0.936532,0.40271 -0.393341,0 -0.708647,-0.13429 -0.945901,-0.40271 -0.237253,-0.27471 -0.355884,-0.67119 -0.355884,-1.1894 v -10.59218 c 0,-0.44955 0.04995,-0.80231 0.149842,-1.0583 0.118633,-0.28096 0.315304,-0.50883 0.590017,-0.68365 0.274718,-0.18105 0.571288,-0.27161 0.889709,-0.27161 z m 17.36427,0 c 0.924045,0 1.741953,0.12487 2.453718,0.37462 0.711764,0.2435 1.289298,0.55257 1.732588,0.92718 0.44329,0.3746 0.77733,0.77108 1.00209,1.1894 0.22477,0.41832 0.33715,0.7898 0.33715,1.11447 0,0.34963 -0.13112,0.64933 -0.39334,0.89907 -0.25598,0.2435 -0.56505,0.36525 -0.92717,0.36525 -0.19979,0 -0.39334,-0.0467 -0.58065,-0.14046 -0.18107,-0.0937 -0.334031,-0.22475 -0.458904,-0.39334 -0.343391,-0.53693 -0.633718,-0.94278 -0.870972,-1.21749 -0.237263,-0.27471 -0.558802,-0.50572 -0.964634,-0.69302 -0.399578,-0.18732 -0.911561,-0.28096 -1.535911,-0.28096 -0.643086,0 -1.217502,0.11236 -1.723224,0.33714 -0.50573,0.21853 -0.939651,0.54007 -1.301786,0.96464 -0.355875,0.41831 -0.630587,0.9334 -0.824147,1.54528 -0.187305,0.61186 -0.280958,1.28929 -0.280958,2.03228 0,1.61083 0.368366,2.85019 1.105105,3.71803 0.742984,0.86786 1.776304,1.30177 3.099934,1.30177 0.643079,0 1.245584,-0.0843 1.807509,-0.25285 0.568162,-0.16853 1.14257,-0.40897 1.723218,-0.72113 v -2.22895 h -2.154024 c -0.518213,0 -0.911561,-0.0781 -1.180029,-0.23414 -0.262229,-0.15603 -0.393348,-0.42145 -0.393348,-0.79604 0,-0.30595 0.109267,-0.55881 0.327785,-0.7586 0.224764,-0.19979 0.527582,-0.2997 0.908439,-0.2997 h 3.156117 c 0.38711,0 0.71489,0.0344 0.98336,0.10294 0.26847,0.0687 0.48388,0.22164 0.64621,0.45889 0.16857,0.23726 0.25287,0.59315 0.25287,1.06766 v 2.63165 c 0,0.34965 -0.0343,0.6306 -0.10303,0.84288 -0.0687,0.20604 -0.19668,0.39334 -0.38398,0.56192 -0.18107,0.16855 -0.41519,0.33091 -0.7024,0.487 -0.8304,0.44954 -1.62957,0.77732 -2.397529,0.98336 -0.767959,0.20605 -1.604597,0.30906 -2.509912,0.30906 -1.055156,0 -2.016674,-0.16239 -2.884516,-0.48701 -0.86785,-0.32465 -1.607728,-0.79605 -2.219586,-1.41415 -0.611874,-0.61811 -1.083261,-1.36735 -1.414168,-2.24768 -0.324662,-0.88035 -0.486993,-1.86372 -0.486993,-2.95008 0,-1.06765 0.159208,-2.04478 0.477624,-2.93135 0.318425,-0.88658 0.786696,-1.63894 1.404808,-2.25706 0.618104,-0.6181 1.370465,-1.0895 2.257036,-1.41416 0.886587,-0.3309 1.891809,-0.49637 3.015642,-0.49637 z m 7.859386,0 c 0.43081,0 0.77108,0.14046 1.02082,0.42146 0.25599,0.28095 0.38398,0.70238 0.38398,1.26431 v 6.75241 c 0,0.76797 0.0843,1.41104 0.25287,1.92926 0.17488,0.51196 0.48076,0.91156 0.9178,1.19878 0.43705,0.28094 1.04892,0.42143 1.83561,0.42143 1.08636,0 1.85435,-0.28721 2.30387,-0.86161 0.44955,-0.58066 0.6743,-1.45788 0.6743,-2.63166 v -6.80861 c 0,-0.56816 0.12487,-0.9896 0.37463,-1.26431 0.24974,-0.28097 0.58376,-0.42146 1.00209,-0.42146 0.41831,0 0.75546,0.14046 1.01144,0.42146 0.26222,0.27471 0.39335,0.69615 0.39335,1.26431 v 6.60256 c 0,1.0739 -0.1062,1.96986 -0.31842,2.68785 -0.20604,0.71802 -0.59939,1.34861 -1.18003,1.89182 -0.49949,0.462 -1.08013,0.79916 -1.74195,1.01144 -0.66182,0.21227 -1.43603,0.31842 -2.3226,0.31842 -1.05517,0 -1.96361,-0.11237 -2.72531,-0.33714 -0.76173,-0.23102 -1.38297,-0.58378 -1.86371,-1.0583 -0.48076,-0.48074 -0.83352,-1.09262 -1.05828,-1.83558 -0.22477,-0.74926 -0.33715,-1.64208 -0.33715,-2.67851 v -6.60256 c 0,-0.56193 0.12486,-0.98336 0.3746,-1.26431 0.25599,-0.28097 0.59003,-0.42146 1.00209,-0.42146 z m -47.890578,0.23415 h 3.624383 c 0.942775,0 1.751321,0.0874 2.425622,0.26222 0.674304,0.17489 1.286174,0.50261 1.835607,0.98336 1.42977,1.22374 2.144664,3.08432 2.144664,5.58175 0,0.82414 -0.0718,1.5765 -0.215403,2.25705 -0.143608,0.68053 -0.365248,1.29554 -0.66494,1.84498 -0.29969,0.54318 -0.683673,1.03018 -1.151941,1.46098 -0.368364,0.33091 -0.771075,0.59627 -1.208125,0.79606 -0.437047,0.19978 -0.908437,0.34028 -1.414163,0.42142 -0.499487,0.0812 -1.064531,0.12179 -1.695126,0.12179 h -3.624389 c -0.505725,0 -0.886586,-0.0749 -1.142571,-0.22476 -0.255984,-0.15604 -0.424559,-0.37149 -0.505729,-0.64621 -0.07492,-0.28096 -0.112381,-0.6431 -0.112381,-1.08638 v -10.06773 c 0,-0.59939 0.134238,-1.03332 0.402709,-1.30178 0.268475,-0.26848 0.702404,-0.40271 1.301785,-0.40271 z m 12.04476,0 h 7.342423 c 0.443287,0 0.771079,0.0999 0.983359,0.29969 0.218525,0.19355 0.327786,0.44953 0.327786,0.76796 0,0.32466 -0.109264,0.5869 -0.327786,0.78668 -0.21228,0.19356 -0.540072,0.29034 -0.983359,0.29034 h -6.265412 v 3.37152 h 5.769047 c 0.424563,0 0.739862,0.0968 0.945901,0.29032 0.212282,0.18731 0.31842,0.43704 0.31842,0.74923 0,0.31217 -0.103012,0.56815 -0.309055,0.76795 -0.206039,0.19355 -0.52446,0.29032 -0.955266,0.29032 h -5.769047 v 3.90536 h 6.480815 c 0.437045,0 0.764836,0.10293 0.983359,0.30904 0.224769,0.19979 0.33715,0.46828 0.33715,0.80544 0,0.32465 -0.112381,0.59 -0.33715,0.79605 -0.218523,0.19978 -0.546314,0.29968 -0.983359,0.29968 h -7.557826 c -0.605625,0 -1.042674,-0.13429 -1.311152,-0.40271 -0.262225,-0.26848 -0.393342,-0.7024 -0.393342,-1.30178 v -10.3206 c 0,-0.39959 0.05932,-0.72427 0.177932,-0.974 0.118634,-0.25599 0.302818,-0.44017 0.552558,-0.55255 0.255986,-0.11871 0.580652,-0.17797 0.973996,-0.17797 z m 48.593928,0 h 7.34148 c 0.44329,0 0.77107,0.0999 0.98335,0.29969 0.21852,0.19355 0.32779,0.44953 0.32779,0.76796 0,0.32466 -0.10928,0.5869 -0.32779,0.78668 -0.21228,0.19356 -0.54006,0.29034 -0.98335,0.29034 h -6.26447 v 3.37152 h 5.76811 c 0.42455,0 0.73986,0.0968 0.94589,0.29032 0.21228,0.18731 0.31843,0.43704 0.31843,0.74923 0,0.31217 -0.10294,0.56815 -0.30905,0.76795 -0.20605,0.19355 -0.52447,0.29032 -0.95527,0.29032 h -5.76811 v 3.90536 h 6.47987 c 0.43705,0 0.76483,0.10293 0.98336,0.30904 0.22477,0.19979 0.33716,0.46828 0.33716,0.80544 0,0.32465 -0.11236,0.59 -0.33716,0.79605 -0.21853,0.19978 -0.54631,0.29968 -0.98336,0.29968 h -7.55688 c -0.60564,0 -1.0427,-0.13429 -1.31116,-0.40271 -0.26223,-0.26848 -0.39333,-0.7024 -0.39333,-1.30178 v -10.3206 c 0,-0.39959 0.0592,-0.72427 0.17797,-0.974 0.1187,-0.25599 0.30282,-0.44017 0.55255,-0.55255 0.25599,-0.11871 0.58066,-0.17797 0.97401,-0.17797 z m -59.561677,2.20085 v 9.31852 h 2.1072 c 0.462024,0 0.824151,-0.0127 1.086382,-0.0375 0.262227,-0.025 0.533825,-0.0874 0.814785,-0.18731 0.280956,-0.0999 0.52446,-0.24037 0.730493,-0.42144 0.930288,-0.78668 1.395438,-2.14154 1.395438,-4.06456 0,-1.35484 -0.20604,-2.36942 -0.618111,-3.04372 -0.40583,-0.67431 -0.908443,-1.102 -1.50782,-1.28306 -0.59938,-0.1873 -1.32364,-0.28096 -2.172758,-0.28096 z" />
    <g
       aria-label="NO "
       id="text1178-5"
       style="font-size:10.5833px;letter-spacing:-1.1774px;fill:#ffffff;stroke-width:0.264583"
       transform="matrix(1.8123032,0,0,1.8123032,-75.230338,-118.11279)">
      <path
         d="m 57.048303,142.7659 2.950715,4.46483 v -4.50617 q 0,-0.43925 0.186034,-0.65629 0.191203,-0.22221 0.511595,-0.22221 0.330728,0 0.521931,0.22221 0.191202,0.21704 0.191202,0.65629 v 5.95827 q 0,0.99736 -0.82682,0.99736 -0.206705,0 -0.37207,-0.062 -0.165364,-0.0568 -0.310057,-0.18603 -0.144694,-0.12919 -0.268717,-0.29972 -0.124023,-0.1757 -0.248046,-0.35657 l -2.878368,-4.41315 v 4.43899 q 0,0.43408 -0.201537,0.65629 -0.201538,0.22221 -0.516763,0.22221 -0.325561,0 -0.52193,-0.22221 -0.19637,-0.22738 -0.19637,-0.65629 v -5.84459 q 0,-0.37207 0.08268,-0.58394 0.09819,-0.23254 0.32556,-0.37724 0.227376,-0.14986 0.490925,-0.14986 0.206705,0 0.351398,0.0672 0.149862,0.0672 0.258382,0.18087 0.113688,0.11369 0.227375,0.29455 0.118856,0.18087 0.242879,0.37724 z"
         style="-inkscape-font-specification:'Arial Rounded MT Bold,  Bold'"
         id="path826" />
      <path
         d="m 65.244977,141.84606 q 1.178219,0 2.020542,0.48059 0.847491,0.47542 1.281572,1.35909 0.43408,0.8785 0.43408,2.06705 0,0.8785 -0.23771,1.5968 -0.237711,0.7183 -0.713133,1.24539 -0.475422,0.5271 -1.167884,0.80615 -0.692462,0.27906 -1.586461,0.27906 -0.888832,0 -1.591629,-0.28422 -0.702797,-0.28939 -1.173051,-0.81132 -0.470254,-0.52193 -0.713133,-1.25573 -0.237711,-0.73381 -0.237711,-1.58647 0,-0.87332 0.248046,-1.60196 0.253214,-0.72864 0.728636,-1.24023 0.475421,-0.5116 1.157548,-0.78031 0.682127,-0.27389 1.550288,-0.27389 z m 2.180739,3.89639 q 0,-0.83198 -0.268717,-1.44176 -0.268716,-0.60978 -0.769976,-0.91984 -0.496092,-0.31523 -1.142046,-0.31523 -0.459919,0 -0.852658,0.1757 -0.387572,0.17053 -0.671792,0.50126 -0.279051,0.33073 -0.444416,0.84749 -0.160196,0.5116 -0.160196,1.15238 0,0.64596 0.160196,1.16789 0.165365,0.52193 0.459919,0.86816 0.299723,0.34106 0.682127,0.51159 0.387572,0.17054 0.847491,0.17054 0.589109,0 1.080034,-0.29456 0.496092,-0.29455 0.785479,-0.9095 0.294555,-0.61495 0.294555,-1.51412 z"
         style="-inkscape-font-specification:'Arial Rounded MT Bold,  Bold'"
         id="path828" />
    </g>
  </g>
</svg>
